<svg width="1024" height="597" viewBox="0 0 1024 597" fill="none" xmlns="http://www.w3.org/2000/svg">
<path d="M624.35 29.1988L673.955 28.9678C674.215 41.2708 673.96 54.6213 673.965 67.0003L673.99 140.87C673.99 154.015 673.445 172.013 674.16 184.779C684.22 170.016 698.83 157.118 715.9 151.475C738.86 143.884 769.85 145.622 791.52 156.07C816.405 168.067 832.73 193.757 835.37 220.775C836.645 233.83 835.99 253.523 835.99 267.224L835.98 334.105C835.955 345.225 834.965 357.635 837.64 368.48C839.235 374.96 848.29 375.22 849.295 378.275C847.66 379.34 794.675 379.61 788.535 379.165L788.055 378.42C789.54 376.48 796.115 374.895 799.14 371.225C801.745 368.065 801.98 364.715 802.305 360.545C802.775 354.425 802.575 347.41 802.58 341.205L802.575 307.865C802.555 278.602 803.11 247.17 801.98 218.12C798.9 194.308 792.745 170.811 770.72 157.242C757.185 148.9 737.36 149.244 722.46 153.169C701.8 158.61 684.77 174.622 674.035 192.656C673.115 213.805 674.265 238.392 673.93 259.94C673.805 293.058 674.03 326.21 673.83 359.325C673.8 365.045 675.175 371.03 680.46 374.005C682.975 375.425 685.92 376.115 687.99 378.115L687.78 378.795C683.275 379.5 625.405 379.405 624.2 378.68L624.175 377.73C626.06 375.805 630.01 375.865 632.045 374.64C636.75 371.8 639.02 365.265 639.055 359.985C639.265 326.575 639.17 293.16 639.055 259.749L639.12 135.23L639.14 74.8633C639.15 64.7638 639.695 53.5938 638.445 43.5053C637.1 32.6448 625.55 33.3478 623.955 30.4678L624.35 29.1988Z" fill="#D0BEA8"/>
<path d="M429.346 28.81L430.182 28.749L430.824 29.327C431.306 34.719 430.984 41.3455 430.97 46.8845L430.951 77.791C430.962 114.143 430.645 150.865 431.045 187.173C439.274 175.453 445.601 168.249 457.681 160.309C479.758 145.797 510.595 144.038 535.94 149.855C564.67 156.713 589.49 174.725 604.92 199.913C622.75 229.04 628.15 264.1 619.915 297.242C611.86 330.81 582.58 366.04 549.785 378.39C544.85 380.25 531.28 384.224 526.255 382.984L525.836 382.275C527.561 380.615 534.375 378.58 536.885 377.195C558.9 365.03 573.41 340.055 581.135 317.355C588.785 297.185 590.526 269.355 588.651 248.086C586.141 219.685 574.915 191.807 555.065 171.051C525.8 140.454 473.918 145.305 445.789 174.824C443.045 177.548 431.538 190.784 431.46 194.493C430.727 229.355 430.547 265.831 430.99 300.639C422.828 288.965 399.332 270.381 396.666 255.568C396.098 252.412 396.506 231.451 396.521 227.01L396.454 109.787L396.516 69.877C396.54 60.1325 397.437 49.015 395.063 39.5125C393.274 32.3525 383.838 32.317 382.146 30.6145L382.253 29.5915C385.921 28.939 395.144 29.0815 399.225 29.0625C409.266 29.0865 419.307 29.0025 429.346 28.81Z" fill="#D0BEA8"/>
<path d="M281.933 146.711C285.833 146.258 293.04 146.45 297.122 146.494C326.756 146.812 358.308 158.972 378.965 180.815C373.655 185.32 370.515 187.926 366.159 193.289C359.641 181.576 350.428 171.582 339.284 164.133C318.314 149.891 295.8 147.041 270.969 151.338C250.719 155.157 233.984 168.523 222.655 185.396C184.515 242.204 196.252 328.055 254.436 367C275.144 380.86 296.06 383.775 320.198 378.845C336.877 374.08 352.045 365.095 364.236 352.76C367.771 349.155 377.336 335.685 380.661 335.155L380.893 336.205C379.649 340.06 374.755 346.925 372.077 350.005C353.01 371.965 329.916 383.12 301.22 385.545C267.833 388.37 235.96 380.29 210.228 358.485C185.908 337.83 170.85 308.315 168.404 276.501C165.849 244.36 176.498 212.564 197.896 188.445C219.241 163.907 249.484 148.888 281.933 146.711Z" fill="#D0BEA8"/>
<path d="M398.518 262.604C402.462 279.581 401.924 292.16 410.571 308.956C437.4 361.075 506.45 366.024 523.6 428.044C527.31 441.474 527.96 459.019 520.88 471.539C519.235 474.589 517.34 478.35 514.96 480.865C510.4 485.06 509.595 486.56 506.4 491.88C507.945 483.98 510.045 477.475 509.485 469.21C506.605 426.31 460.822 409.59 431.665 386.565C407.114 367.18 393.282 340.935 392.027 309.604C391.324 292.032 394.073 279.331 398.518 262.604ZM519.92 466.45C527.7 428.44 496.973 397.275 466.835 379.63C431.052 358.685 402.579 330.18 399.359 286.763C399.044 282.522 399.284 276.864 398.424 272.785L398.091 272.731C396.474 277.2 396.203 282.383 395.724 287.055C394.027 303.614 396.267 321.725 403.311 336.905C412.549 356.455 429.696 372.875 447.454 384.705C474.293 402.58 502.81 418.065 511.025 452.005C513.28 461.31 512.29 468.64 512.26 478.03C512.255 479.255 512.31 479.239 511.98 480.534C513.09 480.669 512.525 480.739 513.65 480.219C516.495 473.979 516.98 475.22 519.92 466.45Z" fill="#D0BEA8"/>
<path d="M519.92 466.45L520.88 471.54C519.235 474.59 517.34 478.35 514.96 480.865L513.65 480.22C516.495 473.98 516.98 475.22 519.92 466.45Z" fill="#D6B896"/>
<path d="M402.068 270.421C402.799 271.054 402.692 270.835 403.085 271.61C415.488 296.12 436.053 313.97 457.894 329.88C488.975 352.525 525.74 370.405 535.32 411.425C540.52 433.7 536.84 450.65 525.385 469.7C524.635 470.765 524.7 470.7 523.585 471.37C523.43 468.965 528.735 459.735 529.78 456.145C532.495 446.825 533.08 438.415 531.935 428.78C526.29 381.4 479.083 360.985 446.226 334.86C429.166 321.3 414.11 305.028 406.473 284.576C405.056 280.781 402.47 274.324 402.068 270.421Z" fill="#D0BEA8"/>
<path d="M396.301 521C407.658 518.685 418.747 526 421.087 537.35C423.427 548.7 416.135 559.805 404.788 562.17C393.408 564.54 382.264 557.225 379.917 545.835C377.57 534.45 384.911 523.325 396.301 521ZM402.721 556.855C411.154 555.665 417.011 547.845 415.786 539.42C414.56 530.99 406.717 525.165 398.295 526.43C389.923 527.685 384.139 535.47 385.358 543.845C386.577 552.225 394.339 558.04 402.721 556.855Z" fill="#D0BEA8"/>
<path d="M314.894 521.46C322.616 521.36 334.731 520.175 341.357 524.46C347.493 528.43 348.469 538.155 343.738 543.61C340.457 547.39 337.424 547.98 332.625 548.49C327.976 548.505 325.224 548.58 320.636 549.13C320.861 552.7 321.919 559.095 319.085 561.47C317.315 562.01 317.447 562 315.629 561.64C314.072 559.83 314.603 525.4 314.894 521.46ZM320.498 543.945C326.575 543.895 333.243 544.48 338.491 541.355C340.034 538.985 340.249 538.485 341.158 535.805C338.508 524.315 330.618 526.27 320.661 526.63L320.498 543.945Z" fill="#D0BEA8"/>
<path d="M665.25 521.04C667.435 521.095 669.16 520.9 671.03 521.93C673.08 524.72 689.045 559.69 688.87 561.39C687.325 562.255 685.51 561.935 683.68 561.845C681.795 558.28 680.445 555.305 678.83 551.6L670.575 551.47L657.49 551.565C655.97 555.515 654.975 558.295 652.905 561.96L646.92 561.76L658.55 535.17C660.085 531.685 663.25 523.9 665.25 521.04ZM659.685 546.585L668.725 546.56L676.42 546.55C675.17 543.795 669.255 530.25 667.685 528.78L659.685 546.585Z" fill="#D0BEA8"/>
<path d="M611.389 521.125L617.539 521.335C611.979 527.485 606.314 533.535 600.549 539.495C604.024 543.785 607.539 548.045 611.094 552.275C613.774 555.555 616.504 558.795 619.284 562C616.149 561.98 614.619 561.815 611.549 561.41C606.904 555.97 600.825 549.21 596.655 543.585C593.955 546.01 591.544 548.63 589.049 551.265C588.984 553.855 589.359 556.32 589.289 558.91C589.199 562.155 585.659 562.59 583.429 561.19C582.964 558.22 582.839 522.645 584.004 521.19C585.719 521.23 587.639 521.405 589.374 521.52C589.569 528.68 588.899 536.045 589.124 543.555C596.419 536.165 603.699 528.015 611.389 521.125Z" fill="#D0BEA8"/>
<path d="M529.929 521.18C535.794 521.17 539.609 521.42 544.524 524.87C545.004 526.64 545.004 525.745 544.244 527.64C541.239 530.03 534.489 525.39 529.854 526.1C525.894 526.71 521.789 529.05 522.224 533.365C526.639 541.725 542.974 535.28 547.249 550.395C545.064 559.655 540.904 561.68 531.879 562.33C528.039 562.04 517.509 560.645 516.359 556.375C516.864 555.46 517.434 554.36 518.289 553.715C521.734 552.55 525.959 557.76 530.239 557.675C534.654 557.585 541.194 556.225 540.999 550.685C540.559 546.715 534.359 544.965 531.314 544.275C520.539 541.82 511.304 536.94 519.819 525.21C522.194 521.93 526.149 521.67 529.929 521.18Z" fill="#D0BEA8"/>
<path d="M456.185 521.3C458.457 521.075 459.966 520.695 461.78 521.935C462.309 525.02 462.054 530.795 462.039 534.2L461.938 556.9C465.418 556.92 482.592 556.425 484.409 556.98C485.256 558.43 484.963 559.82 484.89 561.56C477.265 561.445 463.456 561.215 456.232 561.89C455.816 549.06 456.544 534.685 456.185 521.3Z" fill="#D0BEA8"/>
</svg>
