<svg width="300" height="132" viewBox="0 0 300 132" fill="none" xmlns="http://www.w3.org/2000/svg">
<path d="M104.435 10.8125C117.28 11.0106 130.469 10.8694 143.337 10.8605L153.949 10.8532C160.712 10.851 168.241 10.7829 174.288 14.2118C177.01 15.7552 180.127 19.1053 180.856 22.2425C181.787 26.2596 182.096 31.6274 179.955 35.3555C176.922 40.4119 173.458 41.2767 168.302 42.6781C170.974 43.4983 173.609 43.7209 176.233 44.7671C180.613 46.5142 184.938 49.5611 185.756 54.54C186.307 57.8951 186.259 61.7416 185.602 65.0887C182.329 78.3415 166.039 77.8709 155.317 77.8647L141.903 77.8623L118.566 77.8671C113.965 77.8719 109.171 77.9476 104.594 77.8383C104.298 62.7439 104.498 46.8506 104.523 31.7025L104.509 18.0638C104.504 15.8591 104.616 12.9376 104.435 10.8125ZM176.339 68.6461C179.462 65.6266 181.041 63.7447 181.12 59.1289C181.331 46.7844 168.195 46.0331 158.876 46.119C143.054 46.2651 127.036 45.8133 111.219 46.1654C110.593 46.1982 110.51 46.0924 110.117 46.4139C109.996 47.3124 110.006 48.2176 110.01 49.1221C110.045 56.8729 109.962 64.627 110.062 72.3772C121.701 72.6071 133.836 72.4431 145.511 72.4387L157.069 72.4406C163.093 72.446 169.025 72.5938 174.598 69.859C175.278 69.5252 175.806 69.2041 176.339 68.6461ZM110.04 40.6608C120.746 40.89 131.921 40.7126 142.64 40.7315C150.057 40.7445 163.909 41.3823 170.382 38.2782C172.93 36.7672 175.183 35.3704 175.942 32.2028C176.805 28.6059 176.02 22.5644 172.826 20.1744C166.955 15.7782 157.748 16.1422 150.76 16.1429L137.985 16.1454C130.145 16.1482 121.405 15.951 113.637 16.1618C112.493 16.1834 111.205 16.2382 110.072 16.2188C109.929 22.1575 110.063 28.1517 110.022 34.0953C110.008 36.1737 110.114 38.6332 110.04 40.6608Z" fill="black"/>
<path d="M281.125 10.8008C282.993 10.8521 284.863 10.8681 286.732 10.8487C286.855 17.0547 286.89 23.2623 286.84 29.4693V64.3103C286.842 68.7512 286.73 73.5057 286.79 77.8988L284.767 77.8882C283.615 77.9037 282.338 77.8557 281.176 77.8375C280.868 75.2929 281.021 69.6417 281.023 66.7817L281.012 46.1679C266.728 45.8364 252.269 46.2765 237.966 46.1092C230.119 46.0175 222.115 46.0538 214.271 46.1689C214.223 53.1071 214.213 60.0455 214.238 66.9838C214.238 70.3548 214.092 74.6199 214.193 77.8887L208.77 77.8505C208.537 73.4356 208.738 67.4266 208.736 62.8846L208.739 33.0424L208.729 18.654C208.723 17.0353 208.605 12.1965 208.872 10.8604L214.425 10.8506C214.138 12.6739 214.226 16.2244 214.226 18.1953L214.248 32.8042C214.251 34.7943 214.358 38.7755 214.157 40.5888C217.077 40.8051 220.371 40.7347 223.323 40.7354L237.053 40.7337L281.014 40.746C281.103 34.0997 280.964 27.3897 281.024 20.7414C281.052 17.6425 280.898 13.8383 281.125 10.8008Z" fill="black"/>
<path d="M68.1155 107.026C72.2859 106.754 77.9174 107.692 81.2385 110.331C83.678 112.251 85.2473 115.068 85.5956 118.154C85.9573 121.533 84.8948 124.429 82.8176 127.093C80.1754 130.482 75.7805 131.215 71.7128 131.636C67.4863 132.018 61.8066 131.044 58.3894 128.377C53.8168 124.808 52.7072 117.344 56.2916 112.722C59.3831 108.735 63.3249 107.619 68.1155 107.026ZM72.321 129.072C77.7653 128.283 82.3709 126.213 82.6955 120.002C83.165 111.016 74.6824 109.334 67.4035 109.806C60.8857 110.719 56.3401 113.933 57.1563 121.044C57.4118 123.271 59.0731 125.537 60.8219 126.879C64.0355 129.233 68.5103 129.322 72.321 129.072Z" fill="black" fill-opacity="0.980392"/>
<path d="M4.93797 107.611C7.22981 107.45 10.9373 107.479 13.3233 107.574C19.6239 107.826 31.0667 105.642 32.2931 114.392C33.1302 120.364 30.0486 123.439 24.3186 124.048C21.8472 124.295 18.7837 124.224 16.2812 124.23C13.4482 124.237 10.424 124.304 7.61904 124.082C7.27222 125.866 7.46087 129.233 7.21883 131.389C6.23793 131.267 5.83853 131.241 4.85283 131.284C4.37168 123.783 4.93255 115.811 4.72946 108.267C4.72318 108.033 4.81808 107.807 4.93797 107.611ZM7.28212 121.783C12.5446 121.99 18.034 121.86 23.3101 121.79C24.8032 121.769 26.689 121.358 27.8538 120.38C28.2476 119.896 28.7608 119.28 29.0014 118.728C29.9136 116.633 29.6879 113 27.6994 111.571C25.2458 109.808 20.6973 110.205 17.7489 110.144C14.327 110.074 10.9211 110.195 7.52058 110.136C7.37412 112.51 7.43883 114.881 7.4274 117.256C7.42044 118.705 7.54059 120.375 7.28212 121.783Z" fill="black" fill-opacity="0.984314"/>
<path d="M269.654 107.606C270.144 107.585 271.853 107.496 272.132 107.886C275.021 111.927 278.246 116.188 280.462 120.64C281.719 123.163 286.122 128.618 286.616 131.165L286.482 131.32C285.521 131.323 284.905 131.136 283.972 130.907C282.588 129.334 281.445 127.365 280.164 125.621C277.846 125.254 274.409 125.369 271.968 125.385C269.919 125.374 263.158 125.246 261.591 125.714L261.502 125.742C260.444 126.061 258.472 129.706 257.365 131.064C256.84 131.106 255.21 131.45 255.007 131.365C254.775 129.556 261.613 119.687 262.878 117.647C263.965 115.896 268.261 108.234 269.654 107.606ZM270.561 122.644C271.623 122.653 277.92 122.826 278.425 122.485C275.907 118.741 273.497 114.68 271.405 110.691C271.344 110.572 271.186 110.481 271.066 110.434C268.295 113.257 265.958 117.768 263.929 121.226C263.736 121.554 263.205 122.247 263.143 122.41C263.696 122.885 269.359 122.649 270.561 122.644Z" fill="black" fill-opacity="0.984314"/>
<path d="M165.678 107.025C168.004 106.838 180.663 107.324 180.911 109.463C180.638 109.79 180.297 109.986 179.943 110.222C180.271 110.38 180.322 110.41 180.587 110.659C180.003 111.298 175.416 110.261 174.305 110.097C171.351 109.682 168.359 109.579 165.382 109.791C163.639 109.929 158.323 110.719 158.38 114.017C158.395 114.867 159.778 116.673 160.682 116.993C167.19 119.299 175.157 117.022 181.172 120.746C181.94 121.221 182.446 122.519 182.481 123.383C183.306 130.297 175.581 131.198 170.534 131.67C168.955 131.724 154.151 131.399 154.904 127.807C155.179 126.494 159.96 128.331 161.355 128.502C166.671 129.153 175.805 130.556 179.612 125.716C179.706 124.573 179.744 124.089 179.627 122.959C175.771 120.723 173.213 121.406 169.073 121.087C164.898 120.764 156.129 120.546 155.566 115.01C154.957 109.031 161.022 107.557 165.678 107.025Z" fill="black" fill-opacity="0.980392"/>
<path d="M205.442 107.587C206.406 107.479 206.955 107.553 207.904 107.684C207.849 110.961 208.04 114.387 208.011 117.714C209.405 117.628 211.791 117.862 213.071 117.528C214.277 117.214 216.488 115.619 217.64 114.943C219.198 114.119 220.522 113.25 222.09 112.416C225.099 110.818 228.303 107.106 231.987 107.746C232.328 107.805 232.476 107.85 232.644 108.121C232.435 108.505 225.472 112.854 224.496 113.455C221.179 115.498 218.473 116.813 215.465 119.463C216.668 119.912 218.024 120.915 219.165 121.603C220.894 122.646 222.863 123.68 224.515 124.806C225.652 125.555 226.859 126.382 228.004 127.116C229.192 127.878 233.299 129.948 233.532 131.235C233.516 131.248 233.5 131.262 233.484 131.274C230.732 133.203 216.704 121.333 212.809 120.553L212.709 120.534C211.603 120.314 209.319 120.392 208.061 120.342C207.914 122.604 208.14 129.596 207.704 131.116C207.394 131.407 206.642 131.209 205.945 131.228C204.648 130.254 205.316 122.931 205.136 121.088C205.078 120.483 205.087 117.649 205.141 117.042C205.325 114.976 204.837 109.165 205.442 107.587Z" fill="black" fill-opacity="0.984314"/>
<path d="M108.629 107.562C109.264 107.501 110.144 107.469 110.697 107.806C111.106 108.457 110.918 126.063 110.898 128.534C113.886 128.85 132.234 128.444 132.834 129.115C133.06 129.832 132.821 130.556 132.624 131.278C129.619 130.897 109.577 131.611 108.58 130.828C108.424 130.361 108.329 129.781 108.333 129.284C108.38 123.349 108.394 117.418 108.334 111.483C108.322 110.325 108.285 108.643 108.629 107.562Z" fill="black" fill-opacity="0.984314"/>
<path d="M0 37.6568L0.0634753 37.5656C0.90381 36.3342 1.6573 33.6122 2.16725 32.1356C2.62761 30.8395 3.16814 29.5733 3.7857 28.3444C4.4272 27.0952 7.89015 21.9147 9.03486 21.0356C16.3861 15.3902 24.9814 11.5861 34.2524 10.5587C36.1568 10.3477 37.4363 9.88638 39.3247 9.80879C45.5031 9.47445 51.7447 9.50664 57.9265 9.74894C63.7979 10.1612 78.5088 12.2254 83.2249 15.0867C82.641 16.5192 82.2984 18.3403 81.9599 19.8702C65.9694 15.2737 49.2265 12.8602 32.7402 16.3021C21.2531 18.7003 10.3548 24.2355 6.89316 36.346C4.76493 43.5659 5.66723 51.3415 9.39218 57.8815C13.0101 64.3319 17.7482 67.2707 24.54 69.8339C25.8279 70.3199 27.6447 71.063 28.9311 71.4024C42.2845 74.9254 57.2104 74.3395 70.6671 71.633C73.4121 71.0809 79.3481 69.6227 81.8018 68.5158C82.2555 70.3635 82.9197 72.1155 83.3428 73.8184C80.4933 75.3664 76.5766 75.8786 73.3735 76.5852C56.8701 80.2264 39.7492 80.5192 23.4376 75.6459C14.5866 73.0016 5.67844 65.8196 2.1756 57.088C1.6444 55.7638 0.803201 51.6438 0 50.7491V37.6568Z" fill="black"/>
</svg>
